<?xml version="1.0" encoding="utf-8"?>
<!-- Generator: Adobe Illustrator 26.0.2, SVG Export Plug-In . SVG Version: 6.00 Build 0)  -->
<svg version="1.1" xmlns="http://www.w3.org/2000/svg" xmlns:xlink="http://www.w3.org/1999/xlink" x="0px" y="0px"
	 viewBox="0 0 512 512" style="enable-background:new 0 0 512 512;" xml:space="preserve">
<style type="text/css">
	.st0{fill:#FF7BAC;stroke:#FFFFFF;stroke-width:5;stroke-miterlimit:10;}
	.st1{fill:#3FA9F5;stroke:#FFFFFF;stroke-width:5;stroke-miterlimit:10;}
	.st2{fill:#FFFFFF;stroke:#808080;stroke-width:5;stroke-miterlimit:10;}
	.st3{fill:none;}
	.st4{fill:#FF7BAC;}
	.st5{font-family:'YouSheShaYuFeiTeJianKangTi';}
	.st6{font-size:72px;}
</style>
<g id="图层_2">
</g>
<g id="图层_1">
	<polygon class="st0" points="256,256 140.8,284.8 25.6,256 140.8,227.2 	"/>
	<polygon class="st0" points="486.4,256 371.2,284.8 256,256 371.2,227.2 	"/>
	<polygon class="st0" points="256,256 284.8,371.2 256,486.4 227.2,371.2 	"/>
	<polygon class="st0" points="256,25.6 284.8,140.8 256,256 227.2,140.8 	"/>
	<polygon class="st1" points="254.99,257.01 209.17,333.37 132.81,379.19 178.63,302.83 	"/>
	<polygon class="st1" points="378.29,133.71 332.47,210.07 256.11,255.89 301.93,179.53 	"/>
	<polygon class="st1" points="256.11,256.11 332.47,301.93 378.29,378.29 301.93,332.47 	"/>
	<polygon class="st1" points="133.71,133.71 210.07,179.53 255.89,255.89 179.53,210.07 	"/>
	<circle class="st2" cx="255.1" cy="257.8" r="64"/>
	<rect x="212.75" y="219.73" class="st3" width="87.25" height="75.27"/>
	<text transform="matrix(1 0 0 1 212.7534 280.9277)" class="st4 st5 st6">(+)</text>
</g>
</svg>
