<?xml version="1.0" encoding="utf-8"?>
<!-- Generator: $$$/GeneralStr/196=Adobe Illustrator 27.6.0, SVG Export Plug-In . SVG Version: 6.00 Build 0)  -->
<svg version="1.1" id="Logo" xmlns="http://www.w3.org/2000/svg" xmlns:xlink="http://www.w3.org/1999/xlink" x="0px" y="0px"
	 viewBox="0 0 512 512" style="enable-background:new 0 0 512 512;" xml:space="preserve">
<style type="text/css">
	.st0{fill:#FF7BAC;stroke:#FFFFFF;stroke-width:5;stroke-miterlimit:10;}
	.st1{fill:#3FA9F5;stroke:#FFFFFF;stroke-width:5;stroke-miterlimit:10;}
	.st2{fill:#FFFFFF;stroke:#808080;stroke-width:5;stroke-miterlimit:10;}
	.st3{enable-background:new    ;}
	.st4{fill:#FF7BAC;}
</style>
<g id="Background">
</g>
<g id="Wings">
	<polygon id="PinkRight" class="st0" points="486.4,256 371.2,284.8 256,256 371.2,227.2 	"/>
	<polygon id="PinkLeft" class="st0" points="256,256 140.8,284.8 25.6,256 140.8,227.2 	"/>
	<polygon id="PinkDown" class="st0" points="256,256 284.8,371.2 256,486.4 227.2,371.2 	"/>
	<polygon id="PinkUp" class="st0" points="256,25.6 284.8,140.8 256,256 227.2,140.8 	"/>
	<polygon id="BlueLowerRight" class="st1" points="255.9,256.1 210.1,332.5 133.7,378.3 179.5,301.9 	"/>
	<polygon id="BlueLowerLeft" class="st1" points="256.1,256.1 332.5,301.9 378.3,378.3 301.9,332.5 	"/>
	<polygon id="BlueUpperRight" class="st1" points="378.3,133.7 332.5,210.1 256.1,255.9 301.9,179.5 	"/>
	<polygon id="BlueUpperLeft" class="st1" points="133.7,133.7 210.1,179.5 255.9,255.9 179.5,210.1 	"/>
</g>
<circle id="CenterCircle" class="st2" cx="255.1" cy="257.8" r="64"/>
<g id="Positive" class="st3">
	<path class="st4" d="M216,255.9c0-5,0.7-9.8,2.1-14.4c1.4-4.6,3.5-8.8,6.3-12.5c2.8-3.8,5.7-6.4,8.7-8l1.3,4
		c-3.4,2.5-6.2,6.3-8.3,11.3c-2.2,5.1-3.4,10.8-3.6,17.1l0,2.8c0,8.5,1.6,15.9,4.9,22.2c2,3.8,4.3,6.7,7,8.8l-1.3,3.7
		c-3.1-1.6-6-4.4-8.9-8.2C218.7,275.3,216,266.3,216,255.9z"/>
	<path class="st4" d="M259.1,249.6h14.2v5.8h-14.2v15.2h-6.5v-15.2h-14.2v-5.8h14.2v-14.1h6.5V249.6z"/>
	<path class="st4" d="M296,256.2c0,4.9-0.7,9.6-2,14.2c-1.4,4.5-3.4,8.7-6.2,12.5c-2.8,3.8-5.7,6.5-8.8,8.1l-1.4-3.7
		c3.6-2.6,6.5-6.7,8.6-12.1c2.2-5.5,3.3-11.6,3.3-18.3v-1.1c0-4.6-0.5-9-1.5-12.9c-1-4-2.4-7.6-4.3-10.7c-1.8-3.2-3.9-5.6-6.2-7.4
		l1.4-3.7c3.1,1.6,6,4.3,8.8,8.1c2.8,3.8,4.9,7.9,6.2,12.5C295.3,246.1,296,251,296,256.2z"/>
</g>
</svg>
